<svg xmlns="http://www.w3.org/2000/svg" xmlns:xlink="http://www.w3.org/1999/xlink" width="200" zoomAndPan="magnify" viewBox="0 0 150 74.999997" height="100" preserveAspectRatio="xMidYMid meet" version="1.0"><defs><g/></defs><g fill="#16896d" fill-opacity="0.7686"><g transform="translate(19.929271, 60.110162)"><g><path d="M 14.855469 -41.199219 C 10.585938 -40.453125 6.691406 -37.28125 6.03125 -32.671875 C 5.921875 -31.765625 5.890625 -30.914062 6.035156 -30.09375 C 6.691406 -26.339844 9.777344 -23.945312 12.765625 -21.355469 C 15.226562 -19.25 17.476562 -17.550781 17.929688 -14.964844 C 18.542969 -11.46875 15.847656 -8.816406 13.042969 -8.328125 C 9.925781 -7.828125 7.152344 -9.210938 6.660156 -12.28125 C 6.664062 -12.503906 6.625 -12.722656 6.597656 -12.894531 C 6.167969 -15.351562 4.332031 -16.1875 2.648438 -15.894531 C 0.921875 -15.59375 -0.628906 -14.03125 -0.207031 -11.617188 C 0.777344 -4.714844 7.59375 -1.328125 14.109375 -2.464844 C 21.015625 -3.671875 26.324219 -10.203125 25.160156 -16.851562 C 24.375 -21.335938 20.796875 -24.269531 17.648438 -26.742188 L 17.035156 -27.214844 C 15.085938 -28.695312 13.453125 -30.414062 13.171875 -32.007812 C 12.839844 -33.90625 14.898438 -35.113281 15.898438 -35.242188 C 17.25 -35.390625 18.367188 -34.605469 19.355469 -33.269531 C 20.152344 -32.027344 21.378906 -31.621094 22.542969 -31.824219 C 24.097656 -32.09375 25.445312 -33.53125 25.101562 -35.515625 C 25.023438 -35.949219 24.914062 -36.328125 24.699219 -36.78125 C 23.121094 -39.972656 19.257812 -41.96875 14.855469 -41.199219 Z M 14.855469 -41.199219 "/></g></g></g><g fill="#16896d" fill-opacity="0.7686"><g transform="translate(49.271668, 54.98148)"><g><path d="M 21.800781 -16.21875 C 21.054688 -11.597656 19.296875 -8.664062 17.140625 -8.289062 C 16.535156 -8.183594 16.261719 -8.488281 16.191406 -8.878906 C 16.132812 -9.222656 16.144531 -9.671875 16.203125 -10.082031 C 16.496094 -12.222656 16.621094 -12.777344 16.433594 -13.855469 C 16.253906 -14.894531 15.835938 -15.753906 15.117188 -16.296875 C 16.207031 -17.195312 17.140625 -18.472656 17.484375 -20.3125 C 17.617188 -21.089844 17.644531 -21.941406 17.507812 -22.71875 C 16.929688 -26.039062 13.78125 -28.515625 10.027344 -27.859375 C 9.207031 -27.714844 8.570312 -27.558594 7.835938 -27.164062 L 9.164062 -35.355469 C 9.273438 -35.996094 9.347656 -36.589844 9.257812 -37.105469 C 8.925781 -39.003906 7.304688 -39.878906 5.792969 -39.613281 C 4.371094 -39.367188 3.328125 -38.203125 2.957031 -36.003906 L -2.386719 -2.960938 C -2.410156 -2.601562 -2.410156 -2.335938 -2.355469 -2.035156 C -2.085938 -0.480469 -0.605469 0.105469 0.863281 -0.152344 C 2.417969 -0.421875 3.898438 -1.613281 4.15625 -3.4375 L 5.347656 -12.140625 C 6.40625 -11.4375 7.359375 -11.335938 8.132812 -11.472656 C 8.996094 -11.625 9.636719 -12.046875 9.992188 -12.285156 C 10.273438 -12.46875 10 -11.488281 9.902344 -11.023438 C 9.675781 -9.785156 9.664062 -8.582031 9.851562 -7.503906 C 10.433594 -4.179688 12.902344 -2.253906 17.132812 -2.996094 C 22.957031 -4.011719 26.273438 -9.21875 27.261719 -16.28125 C 27.300781 -16.558594 27.308594 -16.78125 27.269531 -16.996094 C 27.042969 -18.289062 25.570312 -18.832031 24.234375 -18.601562 C 23.066406 -18.394531 21.957031 -17.625 21.800781 -16.21875 Z M 6.195312 -17.226562 L 6.585938 -19.5625 C 7.09375 -21.25 8.285156 -22.304688 9.539062 -22.523438 C 10.617188 -22.710938 11.535156 -22.296875 11.699219 -21.347656 C 11.746094 -21.085938 11.746094 -20.820312 11.671875 -20.496094 C 11.457031 -19.433594 10.671875 -18.585938 9.6875 -18.101562 C 9.15625 -18.097656 8.664062 -18.101562 8.191406 -18.019531 C 7.328125 -17.867188 6.625 -17.566406 6.195312 -17.226562 Z M 6.195312 -17.226562 "/></g></g></g><g fill="#16896d" fill-opacity="0.7686"><g transform="translate(71.882577, 51.029377)"><g><path d="M 22.539062 -16.835938 C 21.503906 -11.320312 19.515625 -8.703125 17.527344 -8.355469 C 16.753906 -8.21875 16.160156 -8.5625 16.054688 -9.164062 C 16.023438 -9.339844 16.019531 -9.605469 16.070312 -9.835938 L 18.6875 -25.144531 C 18.78125 -25.609375 18.757812 -26.003906 18.691406 -26.390625 C 18.386719 -28.117188 16.675781 -29.019531 15.121094 -28.746094 C 13.871094 -28.527344 12.703125 -27.570312 12.371094 -25.644531 L 9.941406 -11.566406 C 9.148438 -8.980469 7.648438 -6.628906 5.921875 -6.328125 C 5.273438 -6.214844 4.851562 -6.585938 4.738281 -7.230469 C 4.679688 -7.578125 4.667969 -8.152344 4.722656 -8.609375 L 7.070312 -22.894531 C 7.160156 -23.398438 7.171875 -23.84375 7.097656 -24.277344 C 6.789062 -26.046875 5.023438 -26.984375 3.425781 -26.703125 C 2.21875 -26.492188 1.050781 -25.53125 0.75 -23.699219 L -1.726562 -8.101562 C -1.851562 -7.28125 -1.84375 -6.480469 -1.714844 -5.75 C -1.105469 -2.253906 2.15625 -0.378906 5.78125 -1.011719 C 8.371094 -1.464844 10.09375 -3.054688 11.390625 -5.058594 C 12.964844 -3.421875 15.492188 -2.707031 18.082031 -3.160156 C 22.179688 -3.875 26.441406 -7.246094 27.933594 -16.757812 C 27.976562 -17.03125 27.972656 -17.296875 27.929688 -17.554688 C 27.6875 -18.9375 26.25 -19.53125 24.910156 -19.296875 C 23.789062 -19.101562 22.730469 -18.292969 22.539062 -16.835938 Z M 22.539062 -16.835938 "/></g></g></g><g fill="#16896d" fill-opacity="0.7686"><g transform="translate(95.140735, 46.964144)"><g><path d="M 4.683594 -8.066406 L 9.160156 -35.886719 C 9.242188 -36.4375 9.238281 -36.96875 9.160156 -37.402344 C 8.875 -39.039062 7.132812 -39.847656 5.839844 -39.621094 C 4.199219 -39.335938 3.277344 -38.242188 2.925781 -36.179688 L -1.570312 -8.976562 C -1.742188 -7.921875 -1.753906 -6.988281 -1.597656 -6.082031 C -0.902344 -2.109375 2.761719 -0.484375 6.558594 -1.144531 C 10.660156 -1.863281 15.347656 -5.308594 16.800781 -14.808594 C 16.835938 -15.128906 16.824219 -15.4375 16.78125 -15.695312 C 16.539062 -17.078125 15.15625 -17.859375 13.820312 -17.625 C 12.738281 -17.4375 11.6875 -16.585938 11.363281 -14.882812 C 10.324219 -9.363281 8.207031 -6.726562 6.179688 -6.371094 C 5.316406 -6.222656 4.75 -6.65625 4.636719 -7.304688 C 4.609375 -7.476562 4.640625 -7.792969 4.683594 -8.066406 Z M 4.683594 -8.066406 "/></g></g></g><g fill="#16896d" fill-opacity="0.7686"><g transform="translate(107.179752, 44.859875)"><g><path d="M 24.910156 -19.296875 C 23.746094 -19.09375 22.644531 -18.277344 22.496094 -16.828125 C 21.460938 -11.3125 19.515625 -8.703125 17.570312 -8.363281 C 16.707031 -8.210938 16.128906 -8.734375 16.007812 -9.425781 C 15.960938 -9.683594 15.960938 -9.949219 16.042969 -10.496094 L 20.402344 -37.453125 C 20.484375 -38 20.574219 -38.773438 20.488281 -39.246094 C 20.164062 -41.101562 18.480469 -41.832031 16.972656 -41.566406 C 15.632812 -41.332031 14.554688 -40.121094 14.171875 -37.742188 L 12.191406 -25.921875 C 10.648438 -27.121094 8.605469 -27.609375 6.578125 -27.253906 C 3.773438 -26.765625 1.023438 -24.683594 0.429688 -21.199219 L -1.632812 -8.832031 C -1.792969 -7.957031 -1.769531 -7.074219 -1.632812 -6.296875 C -0.96875 -2.5 2.546875 -0.445312 6.257812 -1.09375 C 8.285156 -1.449219 10.410156 -2.53125 11.839844 -4.515625 C 13.433594 -3.28125 15.664062 -2.738281 17.824219 -3.113281 C 22.09375 -3.863281 26.476562 -7.785156 27.890625 -16.75 C 27.925781 -17.066406 27.957031 -17.382812 27.914062 -17.640625 C 27.679688 -18.980469 26.25 -19.53125 24.910156 -19.296875 Z M 6.046875 -7.90625 C 5.1875 -7.976562 4.859375 -8.585938 4.738281 -9.277344 C 4.640625 -9.839844 4.679688 -10.378906 4.742188 -10.789062 L 5.941406 -18.425781 C 6.359375 -21.125 7.449219 -21.757812 8.136719 -21.878906 C 8.957031 -22.023438 10.007812 -21.359375 10.265625 -19.894531 C 10.378906 -19.246094 10.390625 -18.402344 10.191406 -17.257812 L 9.289062 -11.984375 C 8.554688 -8.566406 6.894531 -7.875 6.046875 -7.90625 Z M 6.046875 -7.90625 "/></g></g></g><g fill="#ffffff" fill-opacity="1"><g transform="translate(18.669301, 58.972267)"><g><path d="M 14.855469 -41.199219 C 10.585938 -40.453125 6.691406 -37.28125 6.03125 -32.671875 C 5.921875 -31.765625 5.890625 -30.914062 6.035156 -30.09375 C 6.691406 -26.339844 9.777344 -23.945312 12.765625 -21.355469 C 15.226562 -19.25 17.476562 -17.550781 17.929688 -14.964844 C 18.542969 -11.46875 15.847656 -8.816406 13.042969 -8.328125 C 9.925781 -7.828125 7.152344 -9.210938 6.660156 -12.28125 C 6.664062 -12.503906 6.625 -12.722656 6.597656 -12.894531 C 6.167969 -15.351562 4.332031 -16.1875 2.648438 -15.894531 C 0.921875 -15.59375 -0.628906 -14.03125 -0.207031 -11.617188 C 0.777344 -4.714844 7.59375 -1.328125 14.109375 -2.464844 C 21.015625 -3.671875 26.324219 -10.203125 25.160156 -16.851562 C 24.375 -21.335938 20.796875 -24.269531 17.648438 -26.742188 L 17.035156 -27.214844 C 15.085938 -28.695312 13.453125 -30.414062 13.171875 -32.007812 C 12.839844 -33.90625 14.898438 -35.113281 15.898438 -35.242188 C 17.25 -35.390625 18.367188 -34.605469 19.355469 -33.269531 C 20.152344 -32.027344 21.378906 -31.621094 22.542969 -31.824219 C 24.097656 -32.09375 25.445312 -33.53125 25.101562 -35.515625 C 25.023438 -35.949219 24.914062 -36.328125 24.699219 -36.78125 C 23.121094 -39.972656 19.257812 -41.96875 14.855469 -41.199219 Z M 14.855469 -41.199219 "/></g></g></g><g fill="#ffffff" fill-opacity="1"><g transform="translate(48.011698, 53.843585)"><g><path d="M 21.800781 -16.21875 C 21.054688 -11.597656 19.296875 -8.664062 17.140625 -8.289062 C 16.535156 -8.183594 16.261719 -8.488281 16.191406 -8.878906 C 16.132812 -9.222656 16.144531 -9.671875 16.203125 -10.082031 C 16.496094 -12.222656 16.621094 -12.777344 16.433594 -13.855469 C 16.253906 -14.894531 15.835938 -15.753906 15.117188 -16.296875 C 16.207031 -17.195312 17.140625 -18.472656 17.484375 -20.3125 C 17.617188 -21.089844 17.644531 -21.941406 17.507812 -22.71875 C 16.929688 -26.039062 13.78125 -28.515625 10.027344 -27.859375 C 9.207031 -27.714844 8.570312 -27.558594 7.835938 -27.164062 L 9.164062 -35.355469 C 9.273438 -35.996094 9.347656 -36.589844 9.257812 -37.105469 C 8.925781 -39.003906 7.304688 -39.878906 5.792969 -39.613281 C 4.371094 -39.367188 3.328125 -38.203125 2.957031 -36.003906 L -2.386719 -2.960938 C -2.410156 -2.601562 -2.410156 -2.335938 -2.355469 -2.035156 C -2.085938 -0.480469 -0.605469 0.105469 0.863281 -0.152344 C 2.417969 -0.421875 3.898438 -1.613281 4.15625 -3.4375 L 5.347656 -12.140625 C 6.40625 -11.4375 7.359375 -11.335938 8.132812 -11.472656 C 8.996094 -11.625 9.636719 -12.046875 9.992188 -12.285156 C 10.273438 -12.46875 10 -11.488281 9.902344 -11.023438 C 9.675781 -9.785156 9.664062 -8.582031 9.851562 -7.503906 C 10.433594 -4.179688 12.902344 -2.253906 17.132812 -2.996094 C 22.957031 -4.011719 26.273438 -9.21875 27.261719 -16.28125 C 27.300781 -16.558594 27.308594 -16.78125 27.269531 -16.996094 C 27.042969 -18.289062 25.570312 -18.832031 24.234375 -18.601562 C 23.066406 -18.394531 21.957031 -17.625 21.800781 -16.21875 Z M 6.195312 -17.226562 L 6.585938 -19.5625 C 7.09375 -21.25 8.285156 -22.304688 9.539062 -22.523438 C 10.617188 -22.710938 11.535156 -22.296875 11.699219 -21.347656 C 11.746094 -21.085938 11.746094 -20.820312 11.671875 -20.496094 C 11.457031 -19.433594 10.671875 -18.585938 9.6875 -18.101562 C 9.15625 -18.097656 8.664062 -18.101562 8.191406 -18.019531 C 7.328125 -17.867188 6.625 -17.566406 6.195312 -17.226562 Z M 6.195312 -17.226562 "/></g></g></g><g fill="#ffffff" fill-opacity="1"><g transform="translate(70.622607, 49.891483)"><g><path d="M 22.539062 -16.835938 C 21.503906 -11.320312 19.515625 -8.703125 17.527344 -8.355469 C 16.753906 -8.21875 16.160156 -8.5625 16.054688 -9.164062 C 16.023438 -9.339844 16.019531 -9.605469 16.070312 -9.835938 L 18.6875 -25.144531 C 18.78125 -25.609375 18.757812 -26.003906 18.691406 -26.390625 C 18.386719 -28.117188 16.675781 -29.019531 15.121094 -28.746094 C 13.871094 -28.527344 12.703125 -27.570312 12.371094 -25.644531 L 9.941406 -11.566406 C 9.148438 -8.980469 7.648438 -6.628906 5.921875 -6.328125 C 5.273438 -6.214844 4.851562 -6.585938 4.738281 -7.230469 C 4.679688 -7.578125 4.667969 -8.152344 4.722656 -8.609375 L 7.070312 -22.894531 C 7.160156 -23.398438 7.171875 -23.84375 7.097656 -24.277344 C 6.789062 -26.046875 5.023438 -26.984375 3.425781 -26.703125 C 2.21875 -26.492188 1.050781 -25.53125 0.75 -23.699219 L -1.726562 -8.101562 C -1.851562 -7.28125 -1.84375 -6.480469 -1.714844 -5.75 C -1.105469 -2.253906 2.15625 -0.378906 5.78125 -1.011719 C 8.371094 -1.464844 10.09375 -3.054688 11.390625 -5.058594 C 12.964844 -3.421875 15.492188 -2.707031 18.082031 -3.160156 C 22.179688 -3.875 26.441406 -7.246094 27.933594 -16.757812 C 27.976562 -17.03125 27.972656 -17.296875 27.929688 -17.554688 C 27.6875 -18.9375 26.25 -19.53125 24.910156 -19.296875 C 23.789062 -19.101562 22.730469 -18.292969 22.539062 -16.835938 Z M 22.539062 -16.835938 "/></g></g></g><g fill="#ffffff" fill-opacity="1"><g transform="translate(93.880765, 45.82625)"><g><path d="M 4.683594 -8.066406 L 9.160156 -35.886719 C 9.242188 -36.4375 9.238281 -36.96875 9.160156 -37.402344 C 8.875 -39.039062 7.132812 -39.847656 5.839844 -39.621094 C 4.199219 -39.335938 3.277344 -38.242188 2.925781 -36.179688 L -1.570312 -8.976562 C -1.742188 -7.921875 -1.753906 -6.988281 -1.597656 -6.082031 C -0.902344 -2.109375 2.761719 -0.484375 6.558594 -1.144531 C 10.660156 -1.863281 15.347656 -5.308594 16.800781 -14.808594 C 16.835938 -15.128906 16.824219 -15.4375 16.78125 -15.695312 C 16.539062 -17.078125 15.15625 -17.859375 13.820312 -17.625 C 12.738281 -17.4375 11.6875 -16.585938 11.363281 -14.882812 C 10.324219 -9.363281 8.207031 -6.726562 6.179688 -6.371094 C 5.316406 -6.222656 4.75 -6.65625 4.636719 -7.304688 C 4.609375 -7.476562 4.640625 -7.792969 4.683594 -8.066406 Z M 4.683594 -8.066406 "/></g></g></g><g fill="#ffffff" fill-opacity="1"><g transform="translate(105.919782, 43.721981)"><g><path d="M 24.910156 -19.296875 C 23.746094 -19.09375 22.644531 -18.277344 22.496094 -16.828125 C 21.460938 -11.3125 19.515625 -8.703125 17.570312 -8.363281 C 16.707031 -8.210938 16.128906 -8.734375 16.007812 -9.425781 C 15.960938 -9.683594 15.960938 -9.949219 16.042969 -10.496094 L 20.402344 -37.453125 C 20.484375 -38 20.574219 -38.773438 20.488281 -39.246094 C 20.164062 -41.101562 18.480469 -41.832031 16.972656 -41.566406 C 15.632812 -41.332031 14.554688 -40.121094 14.171875 -37.742188 L 12.191406 -25.921875 C 10.648438 -27.121094 8.605469 -27.609375 6.578125 -27.253906 C 3.773438 -26.765625 1.023438 -24.683594 0.429688 -21.199219 L -1.632812 -8.832031 C -1.792969 -7.957031 -1.769531 -7.074219 -1.632812 -6.296875 C -0.96875 -2.5 2.546875 -0.445312 6.257812 -1.09375 C 8.285156 -1.449219 10.410156 -2.53125 11.839844 -4.515625 C 13.433594 -3.28125 15.664062 -2.738281 17.824219 -3.113281 C 22.09375 -3.863281 26.476562 -7.785156 27.890625 -16.75 C 27.925781 -17.066406 27.957031 -17.382812 27.914062 -17.640625 C 27.679688 -18.980469 26.25 -19.53125 24.910156 -19.296875 Z M 6.046875 -7.90625 C 5.1875 -7.976562 4.859375 -8.585938 4.738281 -9.277344 C 4.640625 -9.839844 4.679688 -10.378906 4.742188 -10.789062 L 5.941406 -18.425781 C 6.359375 -21.125 7.449219 -21.757812 8.136719 -21.878906 C 8.957031 -22.023438 10.007812 -21.359375 10.265625 -19.894531 C 10.378906 -19.246094 10.390625 -18.402344 10.191406 -17.257812 L 9.289062 -11.984375 C 8.554688 -8.566406 6.894531 -7.875 6.046875 -7.90625 Z M 6.046875 -7.90625 "/></g></g></g><g fill="#16896d" fill-opacity="0.7686"><g transform="translate(73.854085, 67.854873)"><g/></g></g><g fill="#ffffff" fill-opacity="1"><g transform="translate(72.880555, 66.975667)"><g/></g></g></svg>